<svg width="242" height="93" viewBox="0 0 242 93" fill="none" xmlns="http://www.w3.org/2000/svg">
<path d="M25.4524 20.792C28.9084 20.792 32.1404 21.4 35.1484 22.616C38.1564 23.768 40.7804 25.464 43.0204 27.704C45.3244 29.944 47.1164 32.696 48.3964 35.96C49.6764 39.16 50.3164 42.808 50.3164 46.904C50.3164 52.088 49.2284 56.568 47.0524 60.344C44.8764 64.12 41.9644 67.032 38.3164 69.08C34.7324 71.128 30.7324 72.152 26.3164 72.152C23.6284 72.152 21.0684 71.672 18.6364 70.712C16.2044 69.752 14.0284 68.44 12.1084 66.776C10.1884 65.048 8.68438 63.096 7.59637 60.92H7.40438V92.12H0.684375V46.424C0.684375 40.92 1.80438 36.28 4.04438 32.504C6.28438 28.664 9.29238 25.752 13.0684 23.768C16.8444 21.784 20.9724 20.792 25.4524 20.792ZM25.3564 26.648C22.1564 26.648 19.1804 27.416 16.4284 28.952C13.7404 30.488 11.5644 32.728 9.90038 35.672C8.30038 38.616 7.50038 42.2 7.50038 46.424C7.50038 50.584 8.33238 54.168 9.99638 57.176C11.6604 60.12 13.8684 62.392 16.6204 63.992C19.3724 65.528 22.3484 66.296 25.5484 66.296C28.7484 66.296 31.6924 65.496 34.3804 63.896C37.1324 62.296 39.3404 60.024 41.0044 57.08C42.6684 54.072 43.5004 50.552 43.5004 46.52C43.5004 42.36 42.6684 38.808 41.0044 35.864C39.3404 32.856 37.1324 30.584 34.3804 29.048C31.6284 27.448 28.6204 26.648 25.3564 26.648ZM101.992 72.248C98.6001 72.248 95.3681 71.672 92.2961 70.52C89.2881 69.304 86.6321 67.576 84.3281 65.336C82.0881 63.096 80.3281 60.376 79.0481 57.176C77.7681 53.912 77.1281 50.232 77.1281 46.136C77.1281 40.888 78.2161 36.408 80.3921 32.696C82.5681 28.92 85.4481 26.008 89.0321 23.96C92.6801 21.912 96.7121 20.888 101.128 20.888C103.816 20.888 106.376 21.368 108.808 22.328C111.24 23.288 113.416 24.632 115.336 26.36C117.256 28.024 118.76 29.944 119.848 32.12H120.04V0.919998H126.76V46.616C126.76 52.056 125.64 56.696 123.4 60.536C121.16 64.376 118.152 67.288 114.376 69.272C110.664 71.256 106.536 72.248 101.992 72.248ZM102.088 66.392C105.288 66.392 108.232 65.624 110.92 64.088C113.672 62.552 115.848 60.312 117.448 57.368C119.112 54.424 119.944 50.84 119.944 46.616C119.944 42.392 119.112 38.808 117.448 35.864C115.784 32.92 113.576 30.68 110.824 29.144C108.136 27.544 105.16 26.744 101.896 26.744C98.6961 26.744 95.7201 27.544 92.9681 29.144C90.2801 30.744 88.1041 33.048 86.4401 36.056C84.7761 39 83.9441 42.488 83.9441 46.52C83.9441 50.68 84.7761 54.264 86.4401 57.272C88.1041 60.216 90.3121 62.488 93.0641 64.088C95.8801 65.624 98.8881 66.392 102.088 66.392ZM166.178 71C160.93 71 156.226 70.04 152.066 68.12C147.97 66.136 144.706 63.32 142.274 59.672C139.906 56.024 138.722 51.64 138.722 46.52C138.722 41.784 139.682 37.496 141.602 33.656C143.522 29.752 146.21 26.648 149.666 24.344C153.186 22.04 157.282 20.888 161.954 20.888C166.754 20.888 170.818 21.944 174.146 24.056C177.474 26.168 180.002 29.016 181.73 32.6C183.458 36.184 184.322 40.216 184.322 44.696C184.322 45.336 184.29 46.04 184.226 46.808C184.162 47.576 184.066 48.248 183.938 48.824H145.826C146.018 52.408 147.042 55.416 148.898 57.848C150.754 60.28 153.154 62.104 156.098 63.32C159.106 64.536 162.338 65.144 165.794 65.144H178.178V71H166.178ZM145.826 44.024H177.506C177.506 42.744 177.378 41.336 177.122 39.8C176.866 38.2 176.386 36.632 175.682 35.096C175.042 33.56 174.114 32.152 172.898 30.872C171.746 29.592 170.242 28.568 168.386 27.8C166.594 26.968 164.386 26.552 161.762 26.552C159.33 26.552 157.122 27.064 155.138 28.088C153.154 29.112 151.49 30.488 150.146 32.216C148.802 33.88 147.746 35.736 146.978 37.784C146.274 39.832 145.89 41.912 145.826 44.024ZM215.76 72.152C213.84 72.152 212.144 71.608 210.672 70.52C209.264 69.368 208.112 67.704 207.216 65.528L190.416 22.136H197.904L213.36 63.224C213.744 64.056 214.128 64.664 214.512 65.048C214.896 65.432 215.344 65.624 215.856 65.624C216.304 65.624 216.688 65.432 217.008 65.048C217.392 64.664 217.744 64.056 218.064 63.224L233.712 22.136H241.104L224.112 65.624C223.28 67.8 222.128 69.432 220.656 70.52C219.248 71.608 217.616 72.152 215.76 72.152Z" fill="white"/>
<path d="M63.7181 71.864C62.3741 71.864 61.1901 71.352 60.1661 70.328C59.1421 69.304 58.6301 68.12 58.6301 66.776C58.6301 65.368 59.1421 64.184 60.1661 63.224C61.1901 62.2 62.3741 61.688 63.7181 61.688C65.1261 61.688 66.3101 62.2 67.2701 63.224C68.2941 64.184 68.8061 65.368 68.8061 66.776C68.8061 67.672 68.5501 68.536 68.0381 69.368C67.5901 70.136 66.9821 70.744 66.2141 71.192C65.4461 71.64 64.6141 71.864 63.7181 71.864Z" fill="white"/>
<path d="M63.7181 71.864C62.3741 71.864 61.1901 71.352 60.1661 70.328C59.1421 69.304 58.6301 68.12 58.6301 66.776C58.6301 65.368 59.1421 64.184 60.1661 63.224C61.1901 62.2 62.3741 61.688 63.7181 61.688C65.1261 61.688 66.3101 62.2 67.2701 63.224C68.2941 64.184 68.8061 65.368 68.8061 66.776C68.8061 67.672 68.5501 68.536 68.0381 69.368C67.5901 70.136 66.9821 70.744 66.2141 71.192C65.4461 71.64 64.6141 71.864 63.7181 71.864Z" fill="#FA1E55"/>
</svg>
