<svg id="Layer_1" data-name="Layer 1" xmlns="http://www.w3.org/2000/svg" viewBox="0 0 122.88 122.88"><defs><style>.cls-1{fill:#7b519d;}.cls-1,.cls-2{fill-rule:evenodd;}.cls-2{fill:#fff;}</style></defs><title>viber-square-color</title><path class="cls-1" d="M25.2,0H97.68a25.27,25.27,0,0,1,25.2,25.2V97.68a25.27,25.27,0,0,1-25.2,25.2H25.2A25.27,25.27,0,0,1,0,97.68V25.2A25.27,25.27,0,0,1,25.2,0Z"/><path class="cls-2" d="M67.12,37.17c6.27.92,11.12,3.83,14.3,8.56a20.43,20.43,0,0,1,3.28,9.15,16.4,16.4,0,0,1,0,3.84,2.3,2.3,0,0,1-.94,1A2.27,2.27,0,0,1,82,59.68c-.8-.4-1-1-1-2.78a16.53,16.53,0,0,0-1.89-7.68,15.74,15.74,0,0,0-5.76-6,19.75,19.75,0,0,0-7.94-2.39,2.65,2.65,0,0,1-2-.73,1.87,1.87,0,0,1-.15-2.33c.54-.84,1.36-1,3.83-.6Z"/><path class="cls-2" d="M42.8,30.8a6.53,6.53,0,0,1,1.24.62c2,1.3,7.43,8.29,9.21,11.78,1,2,1.36,3.47,1,4.56s-.87,1.8-3.32,3.77a17.92,17.92,0,0,0-2,1.83,4.74,4.74,0,0,0-.68,2.33c0,1.73,1.13,4.86,2.6,7.26A30.7,30.7,0,0,0,56,69.05a28.66,28.66,0,0,0,6.8,4.82c3,1.5,4.88,1.89,6.23,1.26a6.13,6.13,0,0,0,.82-.46c.1-.09.89-1.06,1.76-2.14,1.68-2.1,2.06-2.44,3.2-2.84a5.53,5.53,0,0,1,4.44.41,60.21,60.21,0,0,1,5.22,3.24,77.27,77.27,0,0,1,7.22,5.89,4.68,4.68,0,0,1,.53,4.88,22.92,22.92,0,0,1-5.81,7.25,8.24,8.24,0,0,1-5,2,7.18,7.18,0,0,1-3.89-.81A81.91,81.91,0,0,1,42.32,65.44a77,77,0,0,1-11-19.93c-1.46-4-1.53-5.76-.33-7.82a23.49,23.49,0,0,1,4.32-4.21c2.66-2,3.89-2.71,4.87-2.92a5.51,5.51,0,0,1,2.58.24Z"/><path class="cls-2" d="M66.41,29.68A28.88,28.88,0,0,1,76,32.52a25.88,25.88,0,0,1,7.7,5.57A24.91,24.91,0,0,1,89,45.33,34.52,34.52,0,0,1,92.3,59.48c.08,1.81,0,2.21-.39,2.73a1.92,1.92,0,0,1-3.1-.29,5.27,5.27,0,0,1-.3-2.14A37.15,37.15,0,0,0,88,54.41a24.7,24.7,0,0,0-9.59-15.94,25.1,25.1,0,0,0-14.51-5.13c-2-.12-2.31-.19-2.75-.53A2,2,0,0,1,61,29.92c.48-.45.82-.51,2.51-.46.87,0,2.16.14,2.87.22Z"/><path class="cls-2" d="M69.32,45a9.9,9.9,0,0,1,4.92,2.46,10.17,10.17,0,0,1,3.07,6.4c.28,1.84.17,2.56-.48,3.16a2,2,0,0,1-2.42.06c-.5-.38-.65-.77-.76-1.83a10,10,0,0,0-.81-3.33c-.91-2-2.51-3-5.21-3.29-1.27-.16-1.66-.3-2.07-.79a1.93,1.93,0,0,1,.58-2.89,2.27,2.27,0,0,1,1.42-.16,14.17,14.17,0,0,1,1.76.21Z"/></svg>