<svg width="512" height="512" viewBox="0 0 512 512" fill="none" xmlns="http://www.w3.org/2000/svg">
<path fill-rule="evenodd" clip-rule="evenodd" d="M105 0H407C434.824 0.0769688 461.487 11.1642 481.161 30.8388C500.836 50.5135 511.923 77.1759 512 105V407C511.923 434.824 500.836 461.487 481.161 481.161C461.487 500.836 434.824 511.923 407 512H105C77.1759 511.923 50.5135 500.836 30.8388 481.161C11.1642 461.487 0.0769688 434.824 0 407L0 105C0.0769688 77.1759 11.1642 50.5135 30.8388 30.8388C50.5135 11.1642 77.1759 0.0769688 105 0Z" fill="#7B519D"/>
<path fill-rule="evenodd" clip-rule="evenodd" d="M283.776 178.186C309.901 182.02 330.109 194.145 343.359 213.853C350.915 225.277 355.604 238.355 357.026 251.978C357.652 257.293 357.652 262.663 357.026 267.978C356.175 269.733 354.808 271.187 353.109 272.145C351.937 272.607 350.685 272.83 349.425 272.801C348.166 272.772 346.925 272.493 345.776 271.978C342.442 270.311 341.609 267.811 341.609 260.395C341.612 249.248 338.91 238.267 333.734 228.395C328.12 218.06 319.831 209.425 309.734 203.395C299.535 197.771 288.259 194.377 276.651 193.436C275.127 193.533 273.599 193.313 272.165 192.789C270.731 192.266 269.42 191.45 268.317 190.395C267.127 189.087 266.417 187.414 266.303 185.65C266.19 183.886 266.68 182.135 267.692 180.686C269.942 177.186 273.359 176.52 283.651 178.186H283.776Z" fill="white"/>
<path fill-rule="evenodd" clip-rule="evenodd" d="M163.701 155.24C165.51 155.915 167.242 156.781 168.867 157.823C177.201 163.24 199.826 192.365 207.242 206.906C211.409 215.24 212.909 221.365 211.409 225.906C209.909 230.448 207.784 233.406 197.576 241.615C194.609 243.942 191.824 246.491 189.242 249.24C187.471 252.175 186.495 255.521 186.409 258.948C186.409 266.156 191.117 279.198 197.242 289.198C203.258 298.568 210.472 307.112 218.701 314.615C227.116 322.654 236.661 329.42 247.034 334.698C259.534 340.948 267.367 342.573 272.992 339.948C274.179 339.397 275.321 338.757 276.409 338.031C276.826 337.656 280.117 333.615 283.742 329.115C290.742 320.365 292.326 318.948 297.076 317.281C300.109 316.266 303.32 315.894 306.505 316.188C309.69 316.482 312.779 317.436 315.576 318.99C323.051 323.117 330.31 327.622 337.326 332.49C347.838 340.058 357.884 348.253 367.409 357.031C369.624 359.884 371.003 363.295 371.393 366.885C371.783 370.475 371.168 374.103 369.617 377.365C363.695 388.981 355.456 399.262 345.409 407.573C339.594 412.606 332.257 415.54 324.576 415.906C318.963 416.328 313.345 415.159 308.367 412.531C250.005 389.11 199.249 350.019 161.701 299.573C142.393 274.316 126.946 246.33 115.867 216.531C109.784 199.865 109.492 192.531 114.492 183.948C119.713 177.351 125.763 171.456 132.492 166.406C143.576 158.073 148.701 155.115 152.784 154.24C156.396 153.714 160.081 154.056 163.534 155.24H163.701Z" fill="white"/>
<path fill-rule="evenodd" clip-rule="evenodd" d="M280.817 146.978C294.724 148.568 308.246 152.573 320.776 158.811C332.811 164.501 343.689 172.369 352.859 182.02C361.985 190.656 369.468 200.877 374.942 212.186C383.657 230.641 388.344 250.739 388.692 271.145C389.026 278.686 388.692 280.353 387.067 282.52C386.234 283.473 385.185 284.215 384.009 284.684C382.832 285.153 381.561 285.336 380.3 285.219C379.039 285.101 377.824 284.685 376.755 284.006C375.686 283.326 374.793 282.403 374.151 281.311C373.123 278.457 372.697 275.421 372.901 272.395C372.735 264.895 372.025 257.416 370.776 250.02C366.621 223.519 352.283 199.688 330.817 183.603C313.4 170.323 292.253 162.846 270.359 162.228C262.026 161.728 260.734 161.436 258.901 160.02C258.046 159.285 257.349 158.384 256.852 157.372C256.356 156.36 256.07 155.258 256.011 154.132C255.953 153.007 256.123 151.881 256.513 150.823C256.902 149.765 257.502 148.797 258.276 147.978C260.276 146.103 261.692 145.853 268.734 146.061C272.359 146.061 277.734 146.645 280.692 146.978H280.817Z" fill="white"/>
<path fill-rule="evenodd" clip-rule="evenodd" d="M292.942 210.811C300.607 212.223 307.714 215.777 313.442 221.061C320.77 228.125 325.311 237.591 326.234 247.728C327.401 255.395 326.942 258.395 324.234 260.895C322.812 262.033 321.055 262.673 319.234 262.718C317.413 262.764 315.628 262.211 314.151 261.145C312.067 259.561 311.442 257.936 310.984 253.52C310.666 248.735 309.524 244.041 307.609 239.645C303.817 231.311 297.151 227.145 285.901 225.936C280.609 225.27 278.984 224.686 277.276 222.645C276.549 221.729 276.03 220.665 275.756 219.529C275.483 218.392 275.46 217.209 275.69 216.063C275.92 214.917 276.397 213.834 277.089 212.891C277.78 211.948 278.668 211.167 279.692 210.603C281.541 209.75 283.616 209.516 285.609 209.936C288.069 210.075 290.518 210.367 292.942 210.811V210.811Z" fill="white"/>
</svg>
