<svg width="259" height="93" viewBox="0 0 259 93" fill="none" xmlns="http://www.w3.org/2000/svg">
<path d="M25.093 20.792C28.549 20.792 31.781 21.4 34.789 22.616C37.797 23.768 40.421 25.464 42.661 27.704C44.965 29.944 46.757 32.696 48.037 35.96C49.317 39.16 49.957 42.808 49.957 46.904C49.957 52.088 48.869 56.568 46.693 60.344C44.517 64.12 41.605 67.032 37.957 69.08C34.373 71.128 30.373 72.152 25.957 72.152C23.269 72.152 20.709 71.672 18.277 70.712C15.845 69.752 13.669 68.44 11.749 66.776C9.829 65.048 8.325 63.096 7.237 60.92H7.045V92.12H0.325V46.424C0.325 40.92 1.445 36.28 3.685 32.504C5.925 28.664 8.933 25.752 12.709 23.768C16.485 21.784 20.613 20.792 25.093 20.792ZM24.997 26.648C21.797 26.648 18.821 27.416 16.069 28.952C13.381 30.488 11.205 32.728 9.541 35.672C7.941 38.616 7.141 42.2 7.141 46.424C7.141 50.584 7.973 54.168 9.637 57.176C11.301 60.12 13.509 62.392 16.261 63.992C19.013 65.528 21.989 66.296 25.189 66.296C28.389 66.296 31.333 65.496 34.021 63.896C36.773 62.296 38.981 60.024 40.645 57.08C42.309 54.072 43.141 50.552 43.141 46.52C43.141 42.36 42.309 38.808 40.645 35.864C38.981 32.856 36.773 30.584 34.021 29.048C31.269 27.448 28.261 26.648 24.997 26.648ZM119.352 72.248C115.96 72.248 112.728 71.672 109.656 70.52C106.648 69.304 103.992 67.576 101.688 65.336C99.4475 63.096 97.6875 60.376 96.4075 57.176C95.1275 53.912 94.4875 50.232 94.4875 46.136C94.4875 40.888 95.5755 36.408 97.7515 32.696C99.9275 28.92 102.808 26.008 106.392 23.96C110.04 21.912 114.072 20.888 118.488 20.888C121.176 20.888 123.736 21.368 126.168 22.328C128.6 23.288 130.776 24.632 132.696 26.36C134.616 28.024 136.12 29.944 137.208 32.12H137.4V0.919998H144.12V46.616C144.12 52.056 143 56.696 140.76 60.536C138.52 64.376 135.512 67.288 131.736 69.272C128.024 71.256 123.896 72.248 119.352 72.248ZM119.448 66.392C122.648 66.392 125.592 65.624 128.28 64.088C131.032 62.552 133.208 60.312 134.808 57.368C136.472 54.424 137.304 50.84 137.304 46.616C137.304 42.392 136.472 38.808 134.808 35.864C133.144 32.92 130.936 30.68 128.184 29.144C125.496 27.544 122.52 26.744 119.256 26.744C116.056 26.744 113.08 27.544 110.328 29.144C107.64 30.744 105.464 33.048 103.799 36.056C102.136 39 101.304 42.488 101.304 46.52C101.304 50.68 102.136 54.264 103.799 57.272C105.464 60.216 107.672 62.488 110.424 64.088C113.24 65.624 116.248 66.392 119.448 66.392ZM183.537 71C178.289 71 173.585 70.04 169.425 68.12C165.329 66.136 162.065 63.32 159.633 59.672C157.265 56.024 156.081 51.64 156.081 46.52C156.081 41.784 157.041 37.496 158.961 33.656C160.881 29.752 163.569 26.648 167.025 24.344C170.545 22.04 174.641 20.888 179.313 20.888C184.113 20.888 188.177 21.944 191.505 24.056C194.833 26.168 197.361 29.016 199.089 32.6C200.817 36.184 201.681 40.216 201.681 44.696C201.681 45.336 201.649 46.04 201.585 46.808C201.521 47.576 201.425 48.248 201.297 48.824H163.185C163.377 52.408 164.401 55.416 166.257 57.848C168.113 60.28 170.513 62.104 173.457 63.32C176.465 64.536 179.697 65.144 183.153 65.144H195.537V71H183.537ZM163.185 44.024H194.865C194.865 42.744 194.737 41.336 194.481 39.8C194.225 38.2 193.745 36.632 193.041 35.096C192.401 33.56 191.473 32.152 190.257 30.872C189.105 29.592 187.601 28.568 185.745 27.8C183.953 26.968 181.745 26.552 179.121 26.552C176.689 26.552 174.481 27.064 172.497 28.088C170.513 29.112 168.849 30.488 167.505 32.216C166.161 33.88 165.105 35.736 164.337 37.784C163.633 39.832 163.249 41.912 163.185 44.024ZM233.119 72.152C231.199 72.152 229.503 71.608 228.031 70.52C226.623 69.368 225.471 67.704 224.575 65.528L207.775 22.136H215.263L230.719 63.224C231.103 64.056 231.487 64.664 231.871 65.048C232.255 65.432 232.703 65.624 233.215 65.624C233.663 65.624 234.047 65.432 234.367 65.048C234.751 64.664 235.103 64.056 235.423 63.224L251.071 22.136H258.463L241.471 65.624C240.639 67.8 239.487 69.432 238.015 70.52C236.607 71.608 234.975 72.152 233.119 72.152Z" fill="white"/>
<path d="M52.6067 80.6L82.9427 0.919998H89.3748L59.0388 80.6H52.6067Z" fill="#BEFA07"/>
</svg>
