<?xml version="1.0" encoding="utf-8"?><svg version="1.1" id="Layer_1" xmlns="http://www.w3.org/2000/svg" xmlns:xlink="http://www.w3.org/1999/xlink" x="0px" y="0px" viewBox="0 0 122.48 122.88" style="enable-background:new 0 0 122.48 122.88" xml:space="preserve"><g><path d="M18.04,75.16c0.16-0.4,0.33-0.81,0.51-1.22c0.42-0.94,0.87-1.85,1.36-2.72c0.67-1.21,1.4-2.38,2.16-3.49 c0.84-1.23,1.74-2.41,2.64-3.52c0.51-0.63,1.22-0.99,1.97-1.06c0.74-0.08,1.51,0.13,2.14,0.64c0.63,0.51,0.99,1.22,1.06,1.97 c0.08,0.74-0.13,1.51-0.64,2.14c-0.82,1.01-1.62,2.06-2.35,3.12c-0.66,0.97-1.3,1.98-1.89,3.04c-0.49,0.88-0.93,1.77-1.31,2.67 c-0.32,0.77-0.6,1.54-0.83,2.32l0,0.06c-0.01,0.14-0.02,0.25-0.04,0.35l-0.01,0.04c-0.92,6.79-0.94,12.59-0.11,17.44 c0.82,4.77,2.46,8.61,4.9,11.58c2.41,2.93,5.65,5.07,9.69,6.47c4.11,1.42,9.05,2.09,14.78,2.06l0.07-0.01 c3.53-0.3,6.87-0.77,10.02-1.41c3.19-0.65,6.21-1.48,9.07-2.48c2.81-0.99,5.48-2.15,8.01-3.5c2.52-1.34,4.88-2.85,7.07-4.52 c2.94-2.25,5.92-5.02,8.59-8.13c2.42-2.81,4.58-5.9,6.26-9.15c1.46-2.82,2.53-5.74,3.07-8.68c0.48-2.65,0.52-5.33-0.01-7.97 l-0.03-0.22l-0.28-1.38c-0.57-2.83-0.97-4.81-1.15-6.27c-0.21-1.67-0.17-2.85,0.16-3.98c0.48-1.64,1.32-2.55,2.71-4.05l0.06-0.07 c1.12-1.21,2.7-2.93,4.77-5.92c0.78-1.13,1.5-2.26,2.15-3.39l0.06-0.1c0.61-1.06,1.15-2.12,1.61-3.17 c0.47-1.04,0.86-2.08,1.18-3.12c0.32-1.02,0.56-2.03,0.73-3.02c0.63-3.74,0.55-7.25-0.09-10.47c-0.69-3.41-2.02-6.51-3.85-9.18 c-0.94-1.37-2-2.63-3.17-3.77c-1.18-1.15-2.47-2.17-3.85-3.06c-1.38-0.89-2.84-1.63-4.36-2.22c-1.51-0.58-3.08-1.02-4.7-1.29 c-3.06-0.52-6.28-0.44-9.51,0.31c-3.05,0.71-6.1,2.03-9.04,4.03c-1.49,1.02-2.77,2.13-3.85,3.35c-1.06,1.2-1.94,2.48-2.66,3.87 l-0.07,0.14c-0.74,1.45-1.32,3.03-1.79,4.75c-0.47,1.76-0.82,3.66-1.05,5.71c-0.28,2.43-0.5,4.85-0.57,7.2 c-0.07,2.36,0,4.69,0.29,6.95c0.16,1.25,0.39,2.51,0.71,3.77c0.29,1.16,0.66,2.3,1.11,3.41l0.1,0.15l0,0 c0.09,0.14,0.17,0.29,0.24,0.44c0.02,0.05,0.04,0.1,0.05,0.15c0.04,0.11,0.07,0.21,0.1,0.31l0.04,0.17c0.31,0.66,0.64,1.29,1,1.9 c0.39,0.67,0.84,1.34,1.33,2.02c0.48,0.65,0.96,1.19,1.44,1.62c0.46,0.41,0.92,0.71,1.38,0.92c0.41,0.19,0.82,0.3,1.25,0.34 c0.45,0.04,0.92,0.01,1.41-0.1c0.79-0.17,1.57-0.01,2.2,0.39c0.63,0.4,1.11,1.04,1.28,1.83c0.16,0.74,0.03,1.47-0.32,2.08l0,0 c-0.34,0.59-0.88,1.06-1.56,1.3l-0.08,0.03c-2.12,0.69-4.14,1.42-6.05,2.2c-1.9,0.78-3.74,1.63-5.5,2.56 c-1.72,0.91-3.32,1.87-4.8,2.91c-1.46,1.02-2.82,2.13-4.06,3.31l0,0c-0.04,0.04-0.09,0.08-0.13,0.12 c-0.56,0.49-1.27,0.73-1.97,0.71c-0.74-0.01-1.48-0.31-2.03-0.87l0,0c-0.04-0.04-0.08-0.09-0.12-0.13 c-0.49-0.56-0.73-1.27-0.71-1.97l0-0.02c0.02-0.74,0.32-1.48,0.89-2.03c1.45-1.39,3.04-2.68,4.76-3.89c1.71-1.2,3.53-2.3,5.45-3.31 c1.11-0.59,2.26-1.15,3.42-1.68c0.39-0.18,0.79-0.36,1.2-0.53l-0.04-0.04c-0.7-0.65-1.38-1.42-2.02-2.29 c-0.5-0.68-0.97-1.38-1.41-2.09c-0.18-0.3-0.36-0.6-0.53-0.91c-1.45,0.66-2.86,1.34-4.24,2.05c-1.76,0.9-3.49,1.86-5.21,2.9 c-1.83,1.11-3.6,2.31-5.33,3.61c-1.62,1.22-3.18,2.53-4.67,3.94c-0.42,1.37-0.91,2.73-1.43,4.05c-0.58,1.47-1.17,2.81-1.73,4.04 c-1.78,3.95-2.41,6.72-2.19,8.61c0.17,1.48,0.96,2.33,2.14,2.74c1.74,0.61,4.18,0.62,6.92,0.28c2.87-0.35,6.01-1.07,9.01-1.89 c0.71-0.19,1.44-0.41,2.19-0.65c0.74-0.24,1.45-0.49,2.15-0.75c0.71-0.27,1.4-0.55,2.08-0.84c0.66-0.28,1.34-0.6,2.06-0.96 c0.72-0.36,1.52-0.39,2.23-0.15c0.71,0.24,1.32,0.75,1.68,1.47c0.36,0.72,0.39,1.52,0.15,2.23c-0.24,0.71-0.75,1.32-1.47,1.68 c-0.79,0.39-1.56,0.75-2.31,1.07c-0.73,0.31-1.52,0.63-2.38,0.95c-0.8,0.3-1.59,0.58-2.38,0.83c-0.79,0.25-1.61,0.5-2.46,0.73 c-3.37,0.92-6.92,1.73-10.21,2.09c-3.42,0.38-6.61,0.29-9.17-0.6c-3.07-1.07-5.24-3.08-5.94-6.43c-0.64-3.07,0.05-7.24,2.58-12.83 c0.95-2.1,1.96-4.44,2.71-6.78c0.75-2.31,1.27-4.65,1.27-6.82c0.01-1.91-0.41-3.73-1.49-5.3c-1.1-1.6-2.91-2.99-5.68-4.02 c-0.78-0.29-1.62-0.43-2.53-0.43c-0.94,0-1.96,0.17-3.07,0.48c-1.22,0.35-2.5,0.88-3.84,1.58c-1.33,0.69-2.74,1.57-4.22,2.62 l-3.41,5.73c-0.41,0.69-1.06,1.15-1.79,1.34c-0.72,0.19-1.52,0.1-2.21-0.31c-0.69-0.41-1.15-1.06-1.34-1.79 c-0.19-0.72-0.1-1.52,0.31-2.21l2.17-3.66l-0.19-0.05c-0.49-0.13-0.97-0.22-1.44-0.27c-0.45-0.05-0.9-0.05-1.36-0.02 c-1.09,0.09-2.02,0.35-2.8,0.73c-0.79,0.39-1.43,0.94-1.93,1.58c-0.41,0.53-0.72,1.14-0.95,1.81c-0.24,0.7-0.37,1.47-0.41,2.28 c-0.04,0.86,0.04,1.77,0.23,2.7c0.19,0.92,0.5,1.86,0.92,2.8c0.89,1.97,2.28,3.89,4.18,5.55c1.74,1.52,3.9,2.82,6.5,3.74 L18.04,75.16L18.04,75.16z M63.62,50.21c-0.29-0.87-0.53-1.76-0.75-2.65c-0.32-1.33-0.56-2.68-0.73-4.03 c-0.33-2.58-0.41-5.19-0.34-7.79c0.07-2.62,0.3-5.2,0.59-7.75c0.27-2.36,0.68-4.57,1.24-6.63c0.57-2.08,1.3-4.03,2.25-5.87 l0.01-0.02c0.95-1.85,2.11-3.57,3.51-5.14c1.4-1.58,3.04-3.01,4.94-4.31c3.57-2.43,7.3-4.04,11.04-4.91 c3.98-0.92,7.95-1.01,11.75-0.37c2,0.34,3.96,0.88,5.84,1.61c1.9,0.74,3.71,1.66,5.41,2.75c1.7,1.09,3.3,2.36,4.77,3.79 c1.45,1.41,2.76,2.97,3.92,4.66c2.24,3.29,3.89,7.09,4.74,11.27c0.8,3.92,0.9,8.16,0.14,12.64c-0.21,1.25-0.51,2.5-0.91,3.77 l-0.02,0.07c-0.39,1.23-0.86,2.47-1.42,3.73c-0.57,1.27-1.21,2.53-1.93,3.78c-0.71,1.24-1.52,2.52-2.43,3.82 c-2.37,3.42-4.11,5.3-5.33,6.62l-0.06,0.07c-0.44,0.48-0.8,0.86-1.02,1.15c-0.18,0.22-0.29,0.4-0.33,0.53 c-0.1,0.35-0.08,0.96,0.08,2.01c0.19,1.29,0.53,3,1.02,5.45l0.28,1.39l0.02,0.06c0.01,0.05,0.02,0.1,0.03,0.16l0,0 c0.67,3.35,0.63,6.71,0.04,10.02c-0.64,3.58-1.92,7.1-3.65,10.45c-1.88,3.65-4.31,7.11-6.99,10.25c-2.96,3.45-6.25,6.52-9.5,9 c-2.44,1.86-5.06,3.54-7.85,5.03c-2.78,1.48-5.73,2.77-8.85,3.86c-3.1,1.09-6.37,1.98-9.81,2.69c-3.45,0.7-7.03,1.21-10.76,1.53 c-0.08,0.01-0.16,0.01-0.23,0l-0.01,0c-6.6,0.06-12.34-0.74-17.19-2.46c-4.95-1.76-8.98-4.47-12.04-8.2 c-2.96-3.6-4.97-8.09-6.01-13.54c-0.97-5.07-1.09-10.98-0.33-17.75l0,0l-0.11-0.05l-0.37-0.14l-0.53-0.19 c-3.36-1.2-6.18-2.9-8.46-4.91c-2.53-2.22-4.4-4.82-5.6-7.5c-0.6-1.33-1.04-2.69-1.32-4.05c-0.28-1.38-0.4-2.76-0.34-4.08 c0.06-1.39,0.3-2.73,0.73-3.97c0.43-1.24,1.03-2.4,1.82-3.43c1-1.31,2.29-2.41,3.85-3.21c1.46-0.75,3.14-1.23,5.03-1.39 c0.79-0.06,1.59-0.05,2.4,0.03c0.78,0.08,1.57,0.23,2.36,0.44l0.01,0c0.63,0.16,1.23,0.36,1.81,0.57l0.12,0.05 c0.31,0.12,0.61,0.24,0.9,0.36c1.41-0.94,2.77-1.74,4.09-2.4c1.56-0.79,3.07-1.39,4.51-1.81l0.12-0.03 c1.62-0.46,3.17-0.68,4.66-0.67c1.56,0.01,3.05,0.28,4.46,0.8c4.12,1.54,6.86,3.7,8.58,6.26c1.57,2.34,2.27,4.96,2.38,7.71 c0.36-0.27,0.72-0.54,1.09-0.8c-0.11-8.34-1.66-13.19-4-16.28c-2.36-3.12-5.7-4.57-9.19-6.09c-4.42-1.93-9.06-3.95-13.02-8.69 c-3.91-4.68-7.04-11.93-8.41-24.22c-0.09-0.8,0.16-1.56,0.63-2.15c0.47-0.58,1.16-0.99,1.96-1.08c0.8-0.09,1.56,0.16,2.15,0.63 c0.58,0.47,0.99,1.16,1.08,1.96c1.2,10.8,3.83,17.05,7.09,20.99c3.2,3.87,7.12,5.58,10.86,7.21c4.17,1.82,8.15,3.55,11.26,7.38 c2.8,3.45,4.77,8.49,5.31,16.65c1.43-0.84,2.9-1.64,4.41-2.41C60.53,51.66,62.06,50.93,63.62,50.21L63.62,50.21z"/></g></svg>