<svg width="512" height="512" viewBox="0 0 512 512" fill="none" xmlns="http://www.w3.org/2000/svg">
<g clip-path="url(#clip0_21_1058)">
<path d="M412 512H100C44.7715 512 0 467.228 0 412V100C0 44.7715 44.7715 0 100 0H412C467.228 0 512 44.7715 512 100V412C512 467.228 467.228 512 412 512Z" fill="url(#paint0_linear_21_1058)"/>
<path d="M349.518 353.248L360.677 288.499H290.605V246.462C290.605 228.744 300.369 211.499 331.63 211.499H363.63V156.375C344.972 153.696 326.118 152.234 307.22 152C249.784 152 212 182.989 212 239.135V288.499H148V353.248H212V512.095H290.605V353.248H349.518Z" fill="white"/>
</g>
<defs>
<linearGradient id="paint0_linear_21_1058" x1="256" y1="512" x2="256" y2="6.10351e-05" gradientUnits="userSpaceOnUse">
<stop stop-color="#103B8F"/>
<stop offset="1" stop-color="#066F96"/>
</linearGradient>
<clipPath id="clip0_21_1058">
<rect width="512" height="512" fill="white"/>
</clipPath>
</defs>
</svg>
