<svg width="512" height="510" viewBox="0 0 512 510" fill="none" xmlns="http://www.w3.org/2000/svg">
<g clip-path="url(#clip0_21_483)">
<path fill-rule="evenodd" clip-rule="evenodd" d="M115.625 0H396.375C427.014 0.0879478 456.372 12.2981 478.037 33.9629C499.702 55.6278 511.912 84.9864 512 115.625V394.042C511.901 424.673 499.686 454.021 478.022 475.677C456.359 497.333 427.006 509.537 396.375 509.625H115.625C84.9936 509.537 55.6413 497.333 33.9776 475.677C12.3139 454.021 0.0989339 424.673 0 394.042V115.625C0.0879478 84.9864 12.2981 55.6278 33.9629 33.9629C55.6278 12.2981 84.9864 0.0879478 115.625 0V0Z" fill="#0A66C2"/>
<path fill-rule="evenodd" clip-rule="evenodd" d="M204.958 197.542H269.667V230.875H270.583C279.625 214.708 301.625 197.542 334.5 197.542C402.792 197.542 415.417 240.042 415.417 295.333V412.25H347.958V308.333C347.958 284.542 347.458 253.917 312.875 253.917C278.292 253.917 272.375 279.792 272.375 306.625V412.458H204.958V197.542ZM166.667 132.458C166.667 139.397 164.609 146.18 160.754 151.95C156.899 157.719 151.42 162.216 145.009 164.871C138.599 167.526 131.544 168.221 124.739 166.868C117.933 165.514 111.682 162.172 106.776 157.266C101.869 152.359 98.5278 146.108 97.1741 139.303C95.8204 132.497 96.5152 125.443 99.1706 119.033C101.826 112.622 106.323 107.143 112.092 103.288C117.862 99.4326 124.645 97.375 131.583 97.375C140.885 97.386 149.802 101.086 156.379 107.663C162.956 114.24 166.656 123.157 166.667 132.458V132.458ZM96.5833 197.542H166.667V412.25H96.5833V197.542Z" fill="white"/>
</g>
<defs>
<clipPath id="clip0_21_483">
<rect width="512" height="509.625" fill="white"/>
</clipPath>
</defs>
</svg>
