<svg width="93" height="35" viewBox="0 0 93 35" fill="none" xmlns="http://www.w3.org/2000/svg">
<path d="M9.88 8.208C11.368 8.208 12.7 8.448 13.876 8.928C15.052 9.384 16.048 10.056 16.864 10.944C17.704 11.832 18.34 12.888 18.772 14.112C19.228 15.312 19.456 16.644 19.456 18.108C19.456 19.956 19.072 21.588 18.304 23.004C17.56 24.396 16.516 25.488 15.172 26.28C13.852 27.048 12.316 27.432 10.564 27.432C9.7 27.432 8.884 27.3 8.116 27.036C7.348 26.772 6.652 26.4 6.028 25.92C5.404 25.44 4.9 24.876 4.516 24.228H4.48V34.92H0.34V18.036C0.34 15.996 0.736 14.244 1.528 12.78C2.344 11.316 3.472 10.188 4.912 9.396C6.352 8.604 8.008 8.208 9.88 8.208ZM9.88 11.736C8.848 11.736 7.924 12 7.108 12.528C6.292 13.032 5.656 13.74 5.2 14.652C4.744 15.564 4.516 16.62 4.516 17.82C4.516 18.996 4.744 20.052 5.2 20.988C5.656 21.9 6.292 22.62 7.108 23.148C7.924 23.652 8.86 23.904 9.916 23.904C10.972 23.904 11.896 23.64 12.688 23.112C13.504 22.584 14.14 21.864 14.596 20.952C15.052 20.04 15.28 18.996 15.28 17.82C15.28 16.62 15.052 15.564 14.596 14.652C14.14 13.74 13.504 13.032 12.688 12.528C11.872 12 10.936 11.736 9.88 11.736Z" fill="#269AEE"/>
<path d="M25.1707 27.396C24.3787 27.396 23.6947 27.12 23.1187 26.568C22.5667 25.992 22.2907 25.308 22.2907 24.516C22.2907 23.748 22.5667 23.088 23.1187 22.536C23.6947 21.96 24.3787 21.672 25.1707 21.672C25.9387 21.672 26.5987 21.96 27.1507 22.536C27.7267 23.088 28.0147 23.748 28.0147 24.516C28.0147 25.044 27.8827 25.536 27.6187 25.992C27.3787 26.424 27.0427 26.76 26.6107 27C26.1787 27.264 25.6987 27.396 25.1707 27.396Z" fill="#C8C8C8"/>
<path d="M25.1707 27.396C24.3787 27.396 23.6947 27.12 23.1187 26.568C22.5667 25.992 22.2907 25.308 22.2907 24.516C22.2907 23.748 22.5667 23.088 23.1187 22.536C23.6947 21.96 24.3787 21.672 25.1707 21.672C25.9387 21.672 26.5987 21.96 27.1507 22.536C27.7267 23.088 28.0147 23.748 28.0147 24.516C28.0147 25.044 27.8827 25.536 27.6187 25.992C27.3787 26.424 27.0427 26.76 26.6107 27C26.1787 27.264 25.6987 27.396 25.1707 27.396Z" fill="#269AEE"/>
<path d="M40.4457 27.432C38.9817 27.432 37.6497 27.204 36.4497 26.748C35.2737 26.268 34.2657 25.584 33.4257 24.696C32.6097 23.808 31.9737 22.764 31.5177 21.564C31.0857 20.34 30.8697 18.996 30.8697 17.532C30.8697 15.66 31.2417 14.028 31.9857 12.636C32.7537 11.244 33.8097 10.164 35.1537 9.396C36.4977 8.604 38.0337 8.208 39.7617 8.208C40.6257 8.208 41.4417 8.34 42.2097 8.604C42.9777 8.868 43.6737 9.24 44.2977 9.72C44.9217 10.2 45.4257 10.764 45.8097 11.412H45.8457V0.719999H49.9857V17.604C49.9857 19.62 49.5777 21.372 48.7617 22.86C47.9697 24.324 46.8537 25.452 45.4137 26.244C43.9977 27.036 42.3417 27.432 40.4457 27.432ZM40.4457 23.904C41.5017 23.904 42.4257 23.652 43.2177 23.148C44.0337 22.62 44.6697 21.9 45.1257 20.988C45.5817 20.076 45.8097 19.02 45.8097 17.82C45.8097 16.62 45.5817 15.564 45.1257 14.652C44.6697 13.74 44.0337 13.032 43.2177 12.528C42.4257 12 41.4897 11.736 40.4097 11.736C39.3777 11.736 38.4537 12 37.6377 12.528C36.8217 13.056 36.1857 13.776 35.7297 14.688C35.2737 15.6 35.0457 16.644 35.0457 17.82C35.0457 19.02 35.2737 20.076 35.7297 20.988C36.1857 21.9 36.8217 22.62 37.6377 23.148C38.4777 23.652 39.4137 23.904 40.4457 23.904ZM64.0884 27C62.0244 27 60.2124 26.616 58.6524 25.848C57.1164 25.056 55.9164 23.976 55.0524 22.608C54.1884 21.216 53.7564 19.62 53.7564 17.82C53.7564 15.924 54.1404 14.256 54.9084 12.816C55.6764 11.376 56.7324 10.248 58.0764 9.432C59.4204 8.616 60.9684 8.208 62.7204 8.208C64.6884 8.208 66.3084 8.628 67.5804 9.468C68.8524 10.308 69.7884 11.436 70.3884 12.852C71.0124 14.268 71.3244 15.852 71.3244 17.604C71.3244 17.844 71.3124 18.12 71.2884 18.432C71.2644 18.744 71.2284 18.984 71.1804 19.152H58.1484C58.2924 20.112 58.6404 20.916 59.1924 21.564C59.7444 22.188 60.4404 22.668 61.2804 23.004C62.1204 23.316 63.0564 23.472 64.0884 23.472H69.0204V27H64.0884ZM58.1124 16.344H67.1844C67.1604 15.888 67.0884 15.432 66.9684 14.976C66.8724 14.52 66.7044 14.088 66.4644 13.68C66.2484 13.272 65.9604 12.924 65.6004 12.636C65.2644 12.324 64.8564 12.084 64.3764 11.916C63.8964 11.724 63.3444 11.628 62.7204 11.628C62.0004 11.628 61.3644 11.772 60.8124 12.06C60.2604 12.324 59.7924 12.684 59.4084 13.14C59.0244 13.572 58.7244 14.076 58.5084 14.652C58.3164 15.204 58.1844 15.768 58.1124 16.344ZM82.7235 27.432C81.7635 27.432 80.8995 27.168 80.1315 26.64C79.3875 26.112 78.8475 25.404 78.5115 24.516L72.8955 8.64H77.3955L82.1835 22.896C82.2555 23.064 82.3395 23.184 82.4355 23.256C82.5315 23.328 82.6395 23.364 82.7595 23.364C82.8795 23.364 82.9875 23.328 83.0835 23.256C83.2035 23.184 83.2875 23.064 83.3355 22.896L88.1595 8.64H92.5875L86.9355 24.516C86.6235 25.404 86.0835 26.112 85.3155 26.64C84.5475 27.168 83.6835 27.432 82.7235 27.432Z" fill="#C8C8C8"/>
</svg>
