<svg width="89" height="35" viewBox="0 0 89 35" fill="none" xmlns="http://www.w3.org/2000/svg">
<path d="M9.06 8.172C10.188 8.172 11.292 8.376 12.372 8.784C13.452 9.168 14.424 9.768 15.288 10.584C16.176 11.376 16.872 12.384 17.376 13.608C17.904 14.808 18.168 16.212 18.168 17.82C18.168 19.86 17.736 21.6 16.872 23.04C16.008 24.48 14.88 25.572 13.488 26.316C12.12 27.06 10.656 27.432 9.096 27.432C7.92 27.432 6.804 27.204 5.748 26.748C4.692 26.292 3.756 25.668 2.94 24.876C2.124 24.084 1.5 23.196 1.068 22.212H0.96V34.92H0.06V17.532C0.06 15.444 0.492 13.716 1.356 12.348C2.244 10.956 3.372 9.912 4.74 9.216C6.132 8.52 7.572 8.172 9.06 8.172ZM9.024 9C7.68 9 6.384 9.324 5.136 9.972C3.912 10.62 2.904 11.592 2.112 12.888C1.344 14.184 0.96 15.804 0.96 17.748C0.96 19.692 1.356 21.324 2.148 22.644C2.94 23.964 3.96 24.96 5.208 25.632C6.456 26.28 7.764 26.604 9.132 26.604C10.5 26.604 11.796 26.256 13.02 25.56C14.268 24.864 15.288 23.868 16.08 22.572C16.872 21.252 17.268 19.668 17.268 17.82C17.268 15.876 16.86 14.256 16.044 12.96C15.252 11.64 14.22 10.656 12.948 10.008C11.7 9.336 10.392 9 9.024 9Z" fill="#269AEE"/>
<path d="M22.5398 27.252C22.2998 27.252 22.0838 27.156 21.8918 26.964C21.6998 26.772 21.6038 26.556 21.6038 26.316C21.6038 26.052 21.6998 25.836 21.8918 25.668C22.0838 25.476 22.2998 25.38 22.5398 25.38C22.8038 25.38 23.0198 25.476 23.1878 25.668C23.3798 25.836 23.4758 26.052 23.4758 26.316C23.4758 26.484 23.4278 26.64 23.3318 26.784C23.2598 26.928 23.1518 27.036 23.0078 27.108C22.8638 27.204 22.7078 27.252 22.5398 27.252Z" fill="#C8C8C8"/>
<path d="M22.5398 27.252C22.2998 27.252 22.0838 27.156 21.8918 26.964C21.6998 26.772 21.6038 26.556 21.6038 26.316C21.6038 26.052 21.6998 25.836 21.8918 25.668C22.0838 25.476 22.2998 25.38 22.5398 25.38C22.8038 25.38 23.0198 25.476 23.1878 25.668C23.3798 25.836 23.4758 26.052 23.4758 26.316C23.4758 26.484 23.4278 26.64 23.3318 26.784C23.2598 26.928 23.1518 27.036 23.0078 27.108C22.8638 27.204 22.7078 27.252 22.5398 27.252Z" fill="#269AEE"/>
<path d="M36.0063 27.468C34.8783 27.468 33.7743 27.276 32.6943 26.892C31.6143 26.484 30.6303 25.884 29.7423 25.092C28.8783 24.276 28.1823 23.268 27.6543 22.068C27.1503 20.844 26.8983 19.428 26.8983 17.82C26.8983 15.756 27.3303 14.016 28.1943 12.6C29.0583 11.16 30.1743 10.068 31.5423 9.324C32.9343 8.58 34.4103 8.208 35.9703 8.208C37.1463 8.208 38.2623 8.436 39.3183 8.892C40.3743 9.348 41.3103 9.972 42.1263 10.764C42.9423 11.532 43.5663 12.42 43.9983 13.428H44.1063V0.719999H45.0063V18.108C45.0063 20.172 44.5623 21.9 43.6743 23.292C42.8103 24.684 41.6943 25.728 40.3263 26.424C38.9583 27.12 37.5183 27.468 36.0063 27.468ZM36.0423 26.64C37.3863 26.64 38.6703 26.316 39.8943 25.668C41.1423 25.02 42.1503 24.048 42.9183 22.752C43.7103 21.456 44.1063 19.836 44.1063 17.892C44.1063 15.924 43.7103 14.292 42.9183 12.996C42.1263 11.676 41.1063 10.692 39.8583 10.044C38.6343 9.372 37.3263 9.036 35.9343 9.036C34.5663 9.036 33.2583 9.384 32.0103 10.08C30.7863 10.776 29.7783 11.784 28.9863 13.104C28.1943 14.4 27.7983 15.972 27.7983 17.82C27.7983 19.764 28.1943 21.396 28.9863 22.716C29.8023 24.012 30.8343 24.996 32.0823 25.668C33.3543 26.316 34.6743 26.64 36.0423 26.64ZM60.538 27C58.642 27 56.914 26.664 55.354 25.992C53.794 25.296 52.546 24.276 51.61 22.932C50.698 21.564 50.242 19.86 50.242 17.82C50.242 16.164 50.578 14.604 51.25 13.14C51.922 11.676 52.882 10.488 54.13 9.576C55.402 8.664 56.926 8.208 58.702 8.208C60.334 8.208 61.762 8.58 62.986 9.324C64.21 10.068 65.158 11.076 65.83 12.348C66.502 13.62 66.838 15.06 66.838 16.668C66.838 16.932 66.826 17.196 66.802 17.46C66.802 17.7 66.778 17.952 66.73 18.216H51.178C51.178 19.944 51.598 21.408 52.438 22.608C53.302 23.784 54.418 24.672 55.786 25.272C57.178 25.872 58.666 26.172 60.25 26.172H64.57V27H60.538ZM51.178 17.388H65.866C65.914 16.908 65.902 16.32 65.83 15.624C65.758 14.904 65.578 14.172 65.29 13.428C65.026 12.66 64.618 11.952 64.066 11.304C63.514 10.632 62.794 10.092 61.906 9.684C61.018 9.252 59.914 9.036 58.594 9.036C57.442 9.036 56.41 9.288 55.498 9.792C54.586 10.272 53.806 10.92 53.158 11.736C52.51 12.552 52.018 13.452 51.682 14.436C51.346 15.42 51.178 16.404 51.178 17.388ZM79.0524 27.432C78.5964 27.432 78.2004 27.276 77.8644 26.964C77.5524 26.652 77.2404 26.124 76.9284 25.38L69.9084 8.676H70.9884L77.8644 25.308C78.0564 25.764 78.2484 26.088 78.4404 26.28C78.6324 26.472 78.8484 26.568 79.0884 26.568C79.3284 26.568 79.5204 26.472 79.6644 26.28C79.8324 26.088 80.0124 25.764 80.2044 25.308L87.1524 8.676H88.2324L81.1404 25.452C80.8284 26.196 80.5164 26.712 80.2044 27C79.8924 27.288 79.5084 27.432 79.0524 27.432Z" fill="#C8C8C8"/>
</svg>
