<svg width="512" height="512" viewBox="0 0 512 512" fill="none" xmlns="http://www.w3.org/2000/svg">
<rect width="512" height="512" rx="109" fill="url(#paint0_linear_21_468)"/>
<path fill-rule="evenodd" clip-rule="evenodd" d="M379.216 140.091L333.543 370.366C333.543 370.366 327.157 386.334 309.591 378.666L204.194 297.864L165.868 279.341L101.353 257.622C101.353 257.622 91.4518 254.108 90.4948 246.445C89.5364 238.777 101.672 234.627 101.672 234.627L358.138 134.022C358.138 134.022 379.215 124.76 379.215 140.091H379.216Z" fill="#FEFEFE"/>
<path fill-rule="evenodd" clip-rule="evenodd" d="M196.095 367.779C196.095 367.779 193.018 367.49 189.184 355.355C185.352 343.219 165.871 279.343 165.871 279.343L320.77 180.973C320.77 180.973 329.713 175.543 329.393 180.973C329.393 180.973 330.991 181.93 326.2 186.401C321.409 190.872 204.515 295.948 204.515 295.948L196.096 367.779H196.095Z" fill="#D4E6F1"/>
<path fill-rule="evenodd" clip-rule="evenodd" d="M244.607 328.848L202.919 366.856C202.919 366.856 199.66 369.327 196.094 367.779L204.077 297.177L244.607 328.848Z" fill="#B6D0E5"/>
<defs>
<linearGradient id="paint0_linear_21_468" x1="256" y1="0" x2="256" y2="512" gradientUnits="userSpaceOnUse">
<stop stop-color="#2AB2E2"/>
<stop offset="1" stop-color="#19A8DD"/>
</linearGradient>
</defs>
</svg>
